<svg width="296" height="112" viewBox="0 0 296 112" fill="none" xmlns="http://www.w3.org/2000/svg">
<rect x="0.5" y="0.5" width="294.163" height="110.328" rx="11.5" stroke="#FCFC03"/>
<path d="M0 12C0 5.37258 5.37258 0 12 0H283.163C289.791 0 295.163 5.37258 295.163 12V68H0V12Z" fill="#FCFC03"/>
<rect x="16" y="16" width="36" height="36" rx="4" fill="black"/>
<path d="M40.8224 33.8612L44.5036 32.0269L45.7726 28.1321L43.2347 26.2852H26.3361L22.4287 29.1874H42.2924L41.237 32.4541H33.2714L32.505 34.8412H40.4706L38.2342 41.7137L41.9657 39.8668L43.2975 35.7458L40.7973 33.9115L40.8224 33.8612Z" fill="#FCFC03"/>
<path d="M28.0452 38.7616L30.3444 31.6002L27.7939 29.6904L23.9619 41.7142H38.2346L39.1895 38.7616H28.0452Z" fill="#FCFC03"/>
<path d="M272.267 39.2644V30.4964H268.299C268.059 30.4964 267.947 30.3684 267.947 30.1604V28.7364C267.947 28.5284 268.059 28.4004 268.299 28.4004H278.811C279.051 28.4004 279.163 28.5284 279.163 28.7364V30.1604C279.163 30.3684 279.051 30.4964 278.811 30.4964H274.859V39.2644C274.859 39.4724 274.715 39.6004 274.491 39.6004H272.619C272.395 39.6004 272.267 39.4724 272.267 39.2644Z" fill="black"/>
<path d="M254.241 36.2724H256.049C256.273 36.2724 256.417 36.3844 256.417 36.6084V36.7684C256.417 37.2644 256.625 37.5044 257.169 37.5044H261.777C262.625 37.5044 262.833 37.2964 262.833 36.6244V35.8564C262.833 35.1844 262.625 34.9764 261.777 34.9764H256.641C254.833 34.9764 254.033 34.1924 254.033 32.4804V30.8964C254.033 29.1844 254.833 28.4004 256.641 28.4004H262.593C264.513 28.4004 265.201 29.0564 265.201 30.8964V31.3924C265.201 31.6164 265.073 31.7284 264.849 31.7284H263.041C262.801 31.7284 262.689 31.6164 262.689 31.3924V31.2324C262.689 30.7364 262.465 30.4964 261.905 30.4964H257.681C256.833 30.4964 256.625 30.7044 256.625 31.3764V32.0324C256.625 32.7204 256.833 32.9284 257.681 32.9284H262.801C264.625 32.9284 265.425 33.6964 265.425 35.4244V37.1044C265.425 38.8164 264.625 39.6004 262.801 39.6004H256.497C254.577 39.6004 253.889 38.9444 253.889 37.1044V36.6084C253.889 36.3844 254.017 36.2724 254.241 36.2724Z" fill="black"/>
<path d="M248.845 39.2804L248.061 37.4564H242.013L241.245 39.2804C241.149 39.5044 241.021 39.6004 240.749 39.6004H238.765C238.557 39.6004 238.477 39.4404 238.557 39.2484L243.245 28.7204C243.325 28.4964 243.469 28.4004 243.741 28.4004H246.461C246.733 28.4004 246.861 28.4964 246.957 28.7204L251.645 39.2484C251.725 39.4404 251.645 39.6004 251.453 39.6004H249.341C249.053 39.6004 248.941 39.5044 248.845 39.2804ZM245.037 30.3364L242.877 35.4084H247.197L245.037 30.3364Z" fill="black"/>
<path d="M228.933 28.7364V37.5044H236.229C236.453 37.5044 236.581 37.6324 236.581 37.8404V39.2644C236.581 39.4724 236.453 39.6004 236.229 39.6004H226.693C226.453 39.6004 226.341 39.4724 226.341 39.2644V28.7364C226.341 28.5284 226.453 28.4004 226.693 28.4004H228.565C228.789 28.4004 228.933 28.5284 228.933 28.7364Z" fill="black"/>
<path d="M222.802 31.5364C222.802 32.9284 222.306 33.6804 221.186 33.9364C222.434 34.1604 222.962 34.9124 222.962 36.3684V37.1044C222.962 38.8164 222.162 39.6004 220.354 39.6004H211.858C211.618 39.6004 211.506 39.4724 211.506 39.2644V28.7364C211.506 28.5284 211.618 28.4004 211.858 28.4004H220.178C221.986 28.4004 222.802 29.1844 222.802 30.8964V31.5364ZM219.202 34.9764H214.098V37.5044H219.202C220.13 37.5044 220.37 37.2804 220.37 36.4804V36.0004C220.37 35.2004 220.13 34.9764 219.202 34.9764ZM214.098 30.4964V32.9284H219.042C219.954 32.9284 220.21 32.6884 220.21 31.9044V31.5204C220.21 30.7204 219.954 30.4964 219.042 30.4964H214.098Z" fill="black"/>
<path d="M194.88 39.2644V35.4404L190.016 28.7364C189.904 28.5764 189.984 28.4004 190.176 28.4004H192.496C192.768 28.4004 192.896 28.4484 193.024 28.6564L196.224 33.3284L199.424 28.6564C199.568 28.4484 199.712 28.4004 199.968 28.4004H202.192C202.368 28.4004 202.448 28.5764 202.32 28.7364L197.472 35.4404V39.2644C197.472 39.4724 197.344 39.6004 197.12 39.6004H195.232C195.024 39.6004 194.88 39.4724 194.88 39.2644Z" fill="black"/>
<path d="M187.643 31.5364C187.643 32.9284 187.147 33.6804 186.027 33.9364C187.275 34.1604 187.803 34.9124 187.803 36.3684V37.1044C187.803 38.8164 187.003 39.6004 185.195 39.6004H176.699C176.459 39.6004 176.347 39.4724 176.347 39.2644V28.7364C176.347 28.5284 176.459 28.4004 176.699 28.4004H185.019C186.827 28.4004 187.643 29.1844 187.643 30.8964V31.5364ZM184.043 34.9764H178.939V37.5044H184.043C184.971 37.5044 185.211 37.2804 185.211 36.4804V36.0004C185.211 35.2004 184.971 34.9764 184.043 34.9764ZM178.939 30.4964V32.9284H183.883C184.795 32.9284 185.051 32.6884 185.051 31.9044V31.5204C185.051 30.7204 184.795 30.4964 183.883 30.4964H178.939Z" fill="black"/>
<path d="M155.342 28.4004H162.894C165.086 28.4004 166.43 29.6644 166.43 31.7764V36.2244C166.43 38.3364 165.086 39.6004 162.894 39.6004H155.342C155.102 39.6004 154.99 39.4724 154.99 39.2644V28.7364C154.99 28.5284 155.102 28.4004 155.342 28.4004ZM157.582 30.4964V37.5044H161.87C163.31 37.5044 163.854 37.0564 163.854 35.8404V32.1604C163.854 30.9604 163.31 30.4964 161.87 30.4964H157.582Z" fill="black"/>
<path d="M140.946 28.4004H151.122C151.346 28.4004 151.474 28.5284 151.474 28.7364V30.1604C151.474 30.3684 151.346 30.4964 151.122 30.4964H143.186V32.9284H149.858C150.082 32.9284 150.226 33.0404 150.226 33.2644V34.6404C150.226 34.8484 150.082 34.9764 149.858 34.9764H143.186V37.5044H151.122C151.346 37.5044 151.474 37.6324 151.474 37.8404V39.2644C151.474 39.4724 151.346 39.6004 151.122 39.6004H140.946C140.706 39.6004 140.594 39.4724 140.594 39.2644V28.7364C140.594 28.5284 140.706 28.4004 140.946 28.4004Z" fill="black"/>
<path d="M134.418 28.4004C136.242 28.4004 137.042 29.1844 137.042 30.8964V33.1044C137.042 34.8324 136.242 35.7124 134.418 35.7124H133.986L137.378 39.2644C137.522 39.3924 137.442 39.6004 137.266 39.6004H134.85C134.546 39.6004 134.418 39.5364 134.258 39.3444L131.106 35.8244H128.258V39.2644C128.258 39.4724 128.114 39.6004 127.89 39.6004H126.018C125.778 39.6004 125.666 39.4724 125.666 39.2644V28.7364C125.666 28.5284 125.778 28.4004 126.018 28.4004H134.418ZM128.258 30.4964V33.7284H133.138C134.258 33.7284 134.45 33.5364 134.45 32.6084V31.6164C134.45 30.6884 134.258 30.4964 133.138 30.4964H128.258Z" fill="black"/>
<path d="M111.621 28.4004H121.797C122.021 28.4004 122.149 28.5284 122.149 28.7364V30.1604C122.149 30.3684 122.021 30.4964 121.797 30.4964H113.861V32.9284H120.533C120.757 32.9284 120.901 33.0404 120.901 33.2644V34.6404C120.901 34.8484 120.757 34.9764 120.533 34.9764H113.861V37.5044H121.797C122.021 37.5044 122.149 37.6324 122.149 37.8404V39.2644C122.149 39.4724 122.021 39.6004 121.797 39.6004H111.621C111.381 39.6004 111.269 39.4724 111.269 39.2644V28.7364C111.269 28.5284 111.381 28.4004 111.621 28.4004Z" fill="black"/>
<path d="M104.995 39.6004H102.019C101.763 39.6004 101.635 39.4884 101.571 39.2644L99.5393 31.3764L97.5073 39.2644C97.4593 39.4884 97.3153 39.6004 97.0593 39.6004H94.0833C93.8433 39.6004 93.6833 39.4884 93.6353 39.2644L90.6913 28.7364C90.6273 28.5284 90.7233 28.4004 90.9473 28.4004H92.9633C93.2193 28.4004 93.3473 28.5124 93.4113 28.7364L95.7153 37.4884L97.9233 28.7364C97.9873 28.5124 98.1313 28.4004 98.3873 28.4004H100.803C101.059 28.4004 101.203 28.5124 101.251 28.7364L103.459 37.5044L105.779 28.7364C105.827 28.5124 105.987 28.4004 106.243 28.4004H108.147C108.355 28.4004 108.451 28.5284 108.403 28.7364L105.443 39.2644C105.395 39.4884 105.251 39.6004 104.995 39.6004Z" fill="black"/>
<path d="M88.1377 30.9604V37.0404C88.1377 38.8004 87.3057 39.6004 85.4657 39.6004H79.0337C77.2097 39.6004 76.3457 38.8004 76.3457 37.0404V30.9604C76.3457 29.2004 77.2097 28.4004 79.0337 28.4004H85.4657C87.3057 28.4004 88.1377 29.2004 88.1377 30.9604ZM85.5457 36.3044V31.6964C85.5457 30.7044 85.3057 30.4964 84.1217 30.4964H80.3617C79.1777 30.4964 78.9377 30.7044 78.9377 31.6964V36.3044C78.9377 37.2964 79.1777 37.5044 80.3617 37.5044H84.1217C85.3057 37.5044 85.5457 37.2964 85.5457 36.3044Z" fill="black"/>
<path d="M70.672 28.4004C72.48 28.4004 73.296 29.1844 73.296 30.8964V33.4564C73.296 35.1684 72.48 35.9524 70.672 35.9524H64.592V39.2644C64.592 39.4724 64.448 39.6004 64.224 39.6004H62.352C62.112 39.6004 62 39.4724 62 39.2644V28.7364C62 28.5284 62.112 28.4004 62.352 28.4004H70.672ZM64.592 30.4964V33.8564H69.392C70.496 33.8564 70.704 33.6644 70.704 32.7364V31.6164C70.704 30.6884 70.496 30.4964 69.392 30.4964H64.592Z" fill="black"/>
<path d="M0.5 68.5H294.663V99.328C294.663 105.679 289.515 110.828 283.163 110.828H12C5.64874 110.828 0.5 105.679 0.5 99.328V68.5Z" fill="black"/>
<path d="M0.5 68.5H294.663V99.328C294.663 105.679 289.515 110.828 283.163 110.828H12C5.64874 110.828 0.5 105.679 0.5 99.328V68.5Z" stroke="#FCFC03"/>
<path d="M249.033 92.652V91.872C248.781 92.532 248.193 92.88 247.281 92.88H245.685C244.437 92.88 243.897 92.352 243.897 91.164V88.284C243.897 87.096 244.437 86.568 245.685 86.568H247.209C248.037 86.568 248.601 86.856 248.877 87.408V84.228C248.877 84.072 248.961 84 249.105 84H250.029C250.173 84 250.257 84.072 250.257 84.228V92.652C250.257 92.808 250.173 92.88 250.029 92.88H249.273C249.117 92.88 249.033 92.808 249.033 92.652ZM246.285 87.708C245.421 87.708 245.265 87.852 245.265 88.56V90.888C245.265 91.596 245.421 91.74 246.285 91.74H247.569C248.517 91.74 248.877 91.38 248.877 90.564V88.884C248.877 88.068 248.517 87.708 247.569 87.708H246.285Z" fill="#FCFC03"/>
<path d="M240.75 92.8804H237.846C236.61 92.8804 236.058 92.3524 236.058 91.1644V88.2844C236.058 87.0964 236.61 86.5684 237.846 86.5684H240.75C241.89 86.5684 242.418 87.0604 242.418 88.1764V90.0244C242.418 90.1804 242.334 90.2524 242.19 90.2524H237.426V90.9004C237.426 91.6084 237.582 91.7524 238.446 91.7524H240.498C240.894 91.7524 241.086 91.6324 241.086 91.2724V91.2604C241.086 91.1164 241.158 91.0324 241.326 91.0324H242.19C242.334 91.0324 242.418 91.1164 242.418 91.2604V91.2844C242.418 92.4124 241.926 92.8804 240.75 92.8804ZM237.426 88.5484V89.1484H241.074V88.2364C241.074 87.8284 240.858 87.6964 240.45 87.6964H238.446C237.582 87.6964 237.426 87.8524 237.426 88.5484Z" fill="#FCFC03"/>
<path d="M233.178 92.652V91.872C232.926 92.532 232.338 92.88 231.426 92.88H229.83C228.582 92.88 228.042 92.352 228.042 91.164V88.284C228.042 87.096 228.582 86.568 229.83 86.568H231.354C232.182 86.568 232.746 86.856 233.022 87.408V84.228C233.022 84.072 233.106 84 233.25 84H234.174C234.318 84 234.402 84.072 234.402 84.228V92.652C234.402 92.808 234.318 92.88 234.174 92.88H233.418C233.262 92.88 233.178 92.808 233.178 92.652ZM230.43 87.708C229.566 87.708 229.41 87.852 229.41 88.56V90.888C229.41 91.596 229.566 91.74 230.43 91.74H231.714C232.662 91.74 233.022 91.38 233.022 90.564V88.884C233.022 88.068 232.662 87.708 231.714 87.708H230.43Z" fill="#FCFC03"/>
<path d="M221.549 86.7964V90.8884C221.549 91.5964 221.693 91.7404 222.545 91.7404H223.697C224.657 91.7404 225.005 91.3804 225.005 90.5644V86.7964C225.005 86.6404 225.089 86.5684 225.245 86.5684H226.157C226.301 86.5684 226.385 86.6404 226.385 86.7964V92.6524C226.385 92.8084 226.301 92.8804 226.157 92.8804H225.401C225.245 92.8804 225.173 92.8084 225.173 92.6524V91.8244C224.945 92.5204 224.345 92.8804 223.409 92.8804H221.957C220.721 92.8804 220.157 92.3524 220.157 91.1644V86.7964C220.157 86.6404 220.253 86.5684 220.397 86.5684H221.309C221.465 86.5684 221.549 86.6404 221.549 86.7964Z" fill="#FCFC03"/>
<path d="M218.47 91.74H218.758C218.902 91.74 218.986 91.812 218.986 91.968V92.652C218.986 92.808 218.902 92.88 218.758 92.88H218.062C216.934 92.88 216.478 92.448 216.478 91.368V84.228C216.478 84.072 216.574 84 216.718 84H217.63C217.786 84 217.858 84.072 217.858 84.228V91.2C217.858 91.608 217.99 91.74 218.47 91.74Z" fill="#FCFC03"/>
<path d="M213.746 91.2484V90.9484C213.746 90.7924 213.818 90.7204 213.986 90.7204H214.85C214.994 90.7204 215.078 90.7924 215.078 90.9484V91.2844C215.078 92.4124 214.586 92.8804 213.41 92.8804H210.506C209.27 92.8804 208.718 92.3524 208.718 91.1644V88.2844C208.718 87.0964 209.27 86.5684 210.506 86.5684H213.41C214.586 86.5684 215.078 87.0364 215.078 88.1644V88.5004C215.078 88.6564 214.994 88.7284 214.85 88.7284H213.986C213.818 88.7284 213.746 88.6564 213.746 88.5004V88.2004C213.746 87.8404 213.542 87.7084 213.134 87.7084H211.106C210.242 87.7084 210.086 87.8524 210.086 88.5604V90.8884C210.086 91.5964 210.242 91.7404 211.106 91.7404H213.134C213.542 91.7404 213.746 91.6084 213.746 91.2484Z" fill="#FCFC03"/>
<path d="M205.765 92.6524V88.5604C205.765 87.8524 205.609 87.7084 204.757 87.7084H203.617C202.657 87.7084 202.309 88.0684 202.309 88.8844V92.6524C202.309 92.8084 202.237 92.8804 202.069 92.8804H201.169C201.001 92.8804 200.929 92.8084 200.929 92.6524V86.7964C200.929 86.6404 201.001 86.5684 201.169 86.5684H201.913C202.069 86.5684 202.141 86.6404 202.141 86.7964V87.6484C202.369 86.9404 202.945 86.5684 203.905 86.5684H205.357C206.593 86.5684 207.145 87.0964 207.145 88.2844V92.6524C207.145 92.8084 207.061 92.8804 206.917 92.8804H206.005C205.849 92.8804 205.765 92.8084 205.765 92.6524Z" fill="#FCFC03"/>
<path d="M199.056 84.7325V92.6285C199.056 92.7965 198.96 92.8805 198.792 92.8805H197.808C197.64 92.8805 197.556 92.7965 197.556 92.6285V84.7325C197.556 84.5645 197.64 84.4805 197.808 84.4805H198.792C198.96 84.4805 199.056 84.5645 199.056 84.7325Z" fill="#FCFC03"/>
<path d="M187.596 88.2124V88.6444C187.596 89.0164 187.788 89.1484 188.196 89.1484H190.836C192.024 89.1484 192.504 89.5204 192.504 90.7444V91.2844C192.504 92.4724 192.024 92.8804 190.836 92.8804H187.764C186.588 92.8804 186.096 92.4124 186.096 91.2964V91.2124C186.096 91.0684 186.192 90.9964 186.336 90.9964H187.2C187.356 90.9964 187.44 91.0684 187.44 91.2124V91.2724C187.44 91.6324 187.632 91.7524 188.028 91.7524H190.524C190.932 91.7524 191.124 91.6204 191.124 91.2364V90.7804C191.124 90.4084 190.932 90.2524 190.524 90.2524H187.872C186.696 90.2524 186.216 89.8804 186.216 88.6564V88.1644C186.216 86.9884 186.696 86.5684 187.872 86.5684H190.692C191.844 86.5684 192.336 87.0364 192.336 88.1524V88.2364C192.336 88.3804 192.264 88.4524 192.108 88.4524H191.232C191.088 88.4524 191.004 88.3804 191.004 88.2364V88.1764C191.004 87.8284 190.812 87.6964 190.416 87.6964H188.196C187.788 87.6964 187.596 87.8284 187.596 88.2124Z" fill="#FCFC03"/>
<path d="M183.048 86.5684C184.284 86.5684 184.836 87.0964 184.836 88.2844V91.1644C184.836 92.3524 184.284 92.8804 183.048 92.8804H181.524C180.696 92.8804 180.132 92.6044 179.856 92.0644V95.1004C179.856 95.2564 179.784 95.3284 179.616 95.3284H178.716C178.548 95.3284 178.476 95.2564 178.476 95.1004V86.7964C178.476 86.6404 178.548 86.5684 178.716 86.5684H179.46C179.616 86.5684 179.688 86.6404 179.688 86.7964V87.6484C179.916 86.9404 180.492 86.5684 181.452 86.5684H183.048ZM182.46 91.7404C183.3 91.7404 183.456 91.5964 183.456 90.8884V88.5604C183.456 87.8524 183.3 87.7084 182.46 87.7084H181.164C180.204 87.7084 179.856 88.0684 179.856 88.8844V90.5644C179.856 91.3804 180.204 91.7404 181.164 91.7404H182.46Z" fill="#FCFC03"/>
<path d="M176.831 88.2844V91.1644C176.831 92.3524 176.279 92.8804 175.043 92.8804H172.127C170.891 92.8804 170.339 92.3524 170.339 91.1644V88.2844C170.339 87.0964 170.891 86.5684 172.127 86.5684H175.043C176.279 86.5684 176.831 87.0964 176.831 88.2844ZM175.451 90.8884V88.5604C175.451 87.8524 175.295 87.7084 174.443 87.7084H172.727C171.863 87.7084 171.707 87.8524 171.707 88.5604V90.8884C171.707 91.5964 171.863 91.7404 172.727 91.7404H174.443C175.295 91.7404 175.451 91.5964 175.451 90.8884Z" fill="#FCFC03"/>
<path d="M169.161 87.7084H168.609C167.421 87.7084 166.953 88.2364 166.953 89.2564V92.6524C166.953 92.8084 166.881 92.8804 166.713 92.8804H165.813C165.645 92.8804 165.573 92.8084 165.573 92.6524V86.7964C165.573 86.6404 165.645 86.5684 165.813 86.5684H166.533C166.689 86.5684 166.773 86.6404 166.773 86.7964V87.6964C166.989 86.9524 167.589 86.5684 168.585 86.5684H169.161C169.317 86.5684 169.401 86.6404 169.401 86.7964V87.4804C169.401 87.6364 169.317 87.7084 169.161 87.7084Z" fill="#FCFC03"/>
<path d="M162.526 92.652V91.872C162.274 92.532 161.686 92.88 160.774 92.88H159.178C157.93 92.88 157.39 92.352 157.39 91.164V88.284C157.39 87.096 157.93 86.568 159.178 86.568H160.702C161.53 86.568 162.094 86.856 162.37 87.408V84.228C162.37 84.072 162.454 84 162.598 84H163.522C163.666 84 163.75 84.072 163.75 84.228V92.652C163.75 92.808 163.666 92.88 163.522 92.88H162.766C162.61 92.88 162.526 92.808 162.526 92.652ZM159.778 87.708C158.914 87.708 158.758 87.852 158.758 88.56V90.888C158.758 91.596 158.914 91.74 159.778 91.74H161.062C162.01 91.74 162.37 91.38 162.37 90.564V88.884C162.37 88.068 162.01 87.708 161.062 87.708H159.778Z" fill="#FCFC03"/>
<path d="M156.212 87.7084H155.66C154.472 87.7084 154.004 88.2364 154.004 89.2564V92.6524C154.004 92.8084 153.932 92.8804 153.764 92.8804H152.864C152.696 92.8804 152.624 92.8084 152.624 92.6524V86.7964C152.624 86.6404 152.696 86.5684 152.864 86.5684H153.584C153.74 86.5684 153.824 86.6404 153.824 86.7964V87.6964C154.04 86.9524 154.64 86.5684 155.636 86.5684H156.212C156.368 86.5684 156.452 86.6404 156.452 86.7964V87.4804C156.452 87.6364 156.368 87.7084 156.212 87.7084Z" fill="#FCFC03"/>
<path d="M149.425 85.2363V84.3003C149.425 84.1443 149.497 84.0723 149.665 84.0723H150.565C150.733 84.0723 150.805 84.1443 150.805 84.3003V85.2363C150.805 85.3803 150.733 85.4643 150.565 85.4643H149.665C149.497 85.4643 149.425 85.3803 149.425 85.2363ZM149.425 92.6523V86.7963C149.425 86.6403 149.497 86.5683 149.665 86.5683H150.565C150.733 86.5683 150.805 86.6403 150.805 86.7963V92.6523C150.805 92.8083 150.733 92.8803 150.565 92.8803H149.665C149.497 92.8803 149.425 92.8083 149.425 92.6523Z" fill="#FCFC03"/>
<path d="M146.756 92.6525L146.06 91.1165H141.08L140.384 92.6525C140.312 92.8085 140.216 92.8805 140.024 92.8805H138.968C138.824 92.8805 138.764 92.7725 138.836 92.6285L142.532 84.7085C142.604 84.5525 142.7 84.4805 142.892 84.4805H144.308C144.5 84.4805 144.596 84.5525 144.668 84.7085L148.364 92.6285C148.436 92.7725 148.376 92.8805 148.232 92.8805H147.116C146.912 92.8805 146.828 92.8085 146.756 92.6525ZM143.564 85.6445L141.644 89.8685H145.484L143.564 85.6445Z" fill="#FCFC03"/>
<path d="M131.197 86.7605V86.3165C131.197 85.8725 130.981 85.6565 130.501 85.6565H128.389C127.597 85.6565 127.393 85.8005 127.393 86.4485V86.5805C127.393 87.1685 127.597 87.3605 128.329 87.8045L132.085 90.0125V88.6205C132.085 88.4645 132.169 88.3805 132.325 88.3805H133.201C133.369 88.3805 133.441 88.4645 133.441 88.6205V90.8165L134.533 91.4525C134.689 91.5365 134.761 91.6205 134.761 91.8005V92.7725C134.761 92.8925 134.617 92.9405 134.497 92.8685L133.273 92.1605C133.033 92.6765 132.529 92.8805 131.641 92.8805H127.009C125.665 92.8805 125.089 92.3285 125.089 91.0445V89.9645C125.089 88.7525 125.605 88.2605 126.805 88.2245C126.241 87.8525 126.001 87.4325 126.001 86.5085V86.3165C126.001 85.0325 126.565 84.4805 127.921 84.4805H130.705C132.061 84.4805 132.553 84.9485 132.553 86.2565V86.7605C132.553 86.9165 132.481 87.0005 132.313 87.0005H131.437C131.269 87.0005 131.197 86.9165 131.197 86.7605ZM131.389 91.7165C131.713 91.7165 131.917 91.6205 132.013 91.4165L128.041 89.0765H127.561C126.721 89.0765 126.517 89.2685 126.517 89.9765V90.8165C126.517 91.5245 126.721 91.7165 127.561 91.7165H131.389Z" fill="#FCFC03"/>
<path d="M118.897 92.652V91.872C118.645 92.532 118.057 92.88 117.145 92.88H115.549C114.301 92.88 113.761 92.352 113.761 91.164V88.284C113.761 87.096 114.301 86.568 115.549 86.568H117.073C117.901 86.568 118.465 86.856 118.741 87.408V84.228C118.741 84.072 118.825 84 118.969 84H119.893C120.037 84 120.121 84.072 120.121 84.228V92.652C120.121 92.808 120.037 92.88 119.893 92.88H119.137C118.981 92.88 118.897 92.808 118.897 92.652ZM116.149 87.708C115.285 87.708 115.129 87.852 115.129 88.56V90.888C115.129 91.596 115.285 91.74 116.149 91.74H117.433C118.381 91.74 118.741 91.38 118.741 90.564V88.884C118.741 88.068 118.381 87.708 117.433 87.708H116.149Z" fill="#FCFC03"/>
<path d="M112.145 91.74H112.433C112.577 91.74 112.661 91.812 112.661 91.968V92.652C112.661 92.808 112.577 92.88 112.433 92.88H111.737C110.609 92.88 110.153 92.448 110.153 91.368V84.228C110.153 84.072 110.249 84 110.393 84H111.305C111.461 84 111.533 84.072 111.533 84.228V91.2C111.533 91.608 111.665 91.74 112.145 91.74Z" fill="#FCFC03"/>
<path d="M106.945 92.8804H104.041C102.805 92.8804 102.253 92.3524 102.253 91.1644V88.2844C102.253 87.0964 102.805 86.5684 104.041 86.5684H106.945C108.085 86.5684 108.613 87.0604 108.613 88.1764V90.0244C108.613 90.1804 108.529 90.2524 108.385 90.2524H103.621V90.9004C103.621 91.6084 103.777 91.7524 104.641 91.7524H106.693C107.089 91.7524 107.281 91.6324 107.281 91.2724V91.2604C107.281 91.1164 107.353 91.0324 107.521 91.0324H108.385C108.529 91.0324 108.613 91.1164 108.613 91.2604V91.2844C108.613 92.4124 108.121 92.8804 106.945 92.8804ZM103.621 88.5484V89.1484H107.269V88.2364C107.269 87.8284 107.053 87.6964 106.645 87.6964H104.641C103.777 87.6964 103.621 87.8524 103.621 88.5484Z" fill="#FCFC03"/>
<path d="M99.2217 85.2363V84.3003C99.2217 84.1443 99.2937 84.0723 99.4617 84.0723H100.362C100.53 84.0723 100.602 84.1443 100.602 84.3003V85.2363C100.602 85.3803 100.53 85.4643 100.362 85.4643H99.4617C99.2937 85.4643 99.2217 85.3803 99.2217 85.2363ZM99.2217 92.6523V86.7963C99.2217 86.6403 99.2937 86.5683 99.4617 86.5683H100.362C100.53 86.5683 100.602 86.6403 100.602 86.7963V92.6523C100.602 92.8083 100.53 92.8803 100.362 92.8803H99.4617C99.2937 92.8803 99.2217 92.8083 99.2217 92.6523Z" fill="#FCFC03"/>
<path d="M92.9743 92.6285V89.7125L89.2423 84.7325C89.1463 84.6125 89.1943 84.4805 89.3383 84.4805H90.5743C90.7783 84.4805 90.8743 84.5165 90.9703 84.6485L93.7543 88.5245L96.5383 84.6485C96.6343 84.5045 96.7423 84.4805 96.9463 84.4805H98.1223C98.2543 84.4805 98.3023 84.6125 98.2183 84.7325L94.4863 89.7005V92.6285C94.4863 92.7965 94.3903 92.8805 94.2223 92.8805H93.2263C93.0703 92.8805 92.9743 92.7965 92.9743 92.6285Z" fill="#FCFC03"/>
<path d="M83.2379 92.8804H80.3339C79.0979 92.8804 78.5459 92.3524 78.5459 91.1644V88.2844C78.5459 87.0964 79.0979 86.5684 80.3339 86.5684H83.2379C84.3779 86.5684 84.9059 87.0604 84.9059 88.1764V90.0244C84.9059 90.1804 84.8219 90.2524 84.6779 90.2524H79.9139V90.9004C79.9139 91.6084 80.0699 91.7524 80.9339 91.7524H82.9859C83.3819 91.7524 83.5739 91.6324 83.5739 91.2724V91.2604C83.5739 91.1164 83.6459 91.0324 83.8139 91.0324H84.6779C84.8219 91.0324 84.9059 91.1164 84.9059 91.2604V91.2844C84.9059 92.4124 84.4139 92.8804 83.2379 92.8804ZM79.9139 88.5484V89.1484H83.5619V88.2364C83.5619 87.8284 83.3459 87.6964 82.9379 87.6964H80.9339C80.0699 87.6964 79.9139 87.8524 79.9139 88.5484Z" fill="#FCFC03"/>
<path d="M73.1197 92.6764L70.5877 86.7964C70.5397 86.6644 70.5877 86.5684 70.7077 86.5684H71.7637C71.9557 86.5684 72.0397 86.6284 72.0877 86.7724L74.1157 91.7764L76.1557 86.7724C76.2157 86.6284 76.2997 86.5684 76.4797 86.5684H77.4877C77.6077 86.5684 77.6557 86.6644 77.6077 86.7964L75.0637 92.6764C75.0037 92.8204 74.9197 92.8804 74.7397 92.8804H73.4437C73.2637 92.8804 73.1917 92.8204 73.1197 92.6764Z" fill="#FCFC03"/>
<path d="M68.1084 85.2363V84.3003C68.1084 84.1443 68.1804 84.0723 68.3484 84.0723H69.2484C69.4164 84.0723 69.4884 84.1443 69.4884 84.3003V85.2363C69.4884 85.3803 69.4164 85.4643 69.2484 85.4643H68.3484C68.1804 85.4643 68.1084 85.3803 68.1084 85.2363ZM68.1084 92.6523V86.7963C68.1084 86.6403 68.1804 86.5683 68.3484 86.5683H69.2484C69.4164 86.5683 69.4884 86.6403 69.4884 86.7963V92.6523C69.4884 92.8083 69.4164 92.8803 69.2484 92.8803H68.3484C68.1804 92.8803 68.1084 92.8083 68.1084 92.6523Z" fill="#FCFC03"/>
<path d="M66.5097 87.708H64.9257V90.996C64.9257 91.62 65.0577 91.74 65.6097 91.74H66.5097C66.6657 91.74 66.7377 91.812 66.7377 91.968V92.652C66.7377 92.808 66.6657 92.88 66.5097 92.88H65.2257C64.0377 92.88 63.5457 92.412 63.5457 91.272V87.708H62.8257C62.6817 87.708 62.5977 87.636 62.5977 87.48V86.796C62.5977 86.64 62.6817 86.568 62.8257 86.568H63.5457V85.188C63.5457 85.032 63.6297 84.96 63.7737 84.96H64.6857C64.8417 84.96 64.9257 85.032 64.9257 85.188V86.568H66.5097C66.6657 86.568 66.7377 86.64 66.7377 86.796V87.48C66.7377 87.636 66.6657 87.708 66.5097 87.708Z" fill="#FCFC03"/>
<path d="M56.7256 92.8804C55.5376 92.8804 55.0576 92.4724 55.0576 91.2844V90.7444C55.0576 89.5204 55.5376 89.1484 56.7256 89.1484H59.9776V88.5484C59.9776 87.8524 59.8216 87.6964 58.9696 87.6964H57.1936C56.8096 87.6964 56.6056 87.8164 56.6056 88.1764V88.2364C56.6056 88.3804 56.5336 88.4524 56.3776 88.4524H55.5136C55.3576 88.4524 55.2736 88.3804 55.2736 88.2364V88.1644C55.2736 87.0364 55.7656 86.5684 56.9416 86.5684H59.5696C60.7936 86.5684 61.3576 87.0964 61.3576 88.2844V91.4644C61.3576 91.6564 61.4416 91.7404 61.6456 91.7404H61.7176C61.8736 91.7404 61.9456 91.8124 61.9456 91.9684V92.6524C61.9456 92.8084 61.8736 92.8804 61.7176 92.8804H61.1416C60.4096 92.8804 60.1216 92.5084 60.1216 91.9204V91.8364C59.8816 92.5204 59.2936 92.8804 58.3576 92.8804H56.7256ZM58.6696 91.7524C59.6176 91.7524 59.9776 91.3804 59.9776 90.5764V90.2524H57.0496C56.6536 90.2524 56.4496 90.3724 56.4496 90.7564V91.2364C56.4496 91.6204 56.6296 91.7524 57.0496 91.7524H58.6696Z" fill="#FCFC03"/>
<path d="M53.2703 92.8805H51.5063C51.3143 92.8805 51.2303 92.8325 51.1343 92.6885L46.3223 85.7165V92.6285C46.3223 92.7965 46.2263 92.8805 46.0583 92.8805H45.1583C44.9903 92.8805 44.9062 92.7965 44.9062 92.6285V84.7325C44.9062 84.5645 44.9903 84.4805 45.1583 84.4805H46.9223C47.1023 84.4805 47.1863 84.5285 47.2823 84.6725L52.1062 91.6565V84.7325C52.1062 84.5645 52.2022 84.4805 52.3702 84.4805H53.2703C53.4383 84.4805 53.5222 84.5645 53.5222 84.7325V92.6285C53.5222 92.7965 53.4383 92.8805 53.2703 92.8805Z" fill="#FCFC03"/>
</svg>
